<svg width="27" height="19" viewBox="0 0 27 19" fill="none" xmlns="http://www.w3.org/2000/svg">
<path fill-rule="evenodd" clip-rule="evenodd" d="M6.95691 18.9772C6.95691 18.9772 7.77802 17.9964 8.46229 17.1524C5.47436 16.3086 4.33389 14.461 4.33389 14.461C5.26911 15.0769 6.15863 15.5102 6.95691 15.8067C8.09743 16.2857 9.19225 16.5822 10.2643 16.7875C12.4539 17.1981 14.4611 17.084 16.1717 16.7648C17.4719 16.5138 18.5895 16.1717 19.5247 15.7839C20.0493 15.5787 20.6195 15.3278 21.1897 15.0084C21.2581 14.9628 21.3266 14.94 21.395 14.8944C21.4405 14.8716 21.4634 14.8487 21.4862 14.8487C21.8968 14.6206 22.1249 14.461 22.1249 14.461C22.1249 14.461 21.03 16.2629 18.1333 17.1296C18.8176 17.9964 19.6615 19 19.6615 19C24.7022 18.8403 26.6182 15.5558 26.6182 15.5558C26.6182 8.2798 23.3337 2.37237 23.3337 2.37237C20.0492 -0.0681714 16.9472 0.000245242 16.9472 0.000245242L16.7191 0.273912C20.8246 1.4372 22.6951 3.23912 22.6951 3.23912C22.6951 3.23912 22.1932 2.9654 21.3493 2.60044C18.9087 1.52839 16.97 1.25472 16.1717 1.16348C16.0348 1.14066 15.9207 1.11784 15.784 1.11784C14.3926 0.935359 12.8188 0.889765 11.1765 1.07219C9.00967 1.32309 6.68319 1.96176 4.31107 3.23907C4.31107 3.23907 6.11299 1.52834 9.99048 0.365099L9.67112 0.000193253C9.67112 0.000193253 6.54636 -0.0682753 3.28467 2.37232C3.28467 2.37232 0.000148773 8.2798 0.000148773 15.5558C0.000148773 15.533 1.91613 18.8175 6.95686 18.9771L6.95691 18.9772ZM9.23785 8.41663C10.5379 8.41663 11.5643 9.53428 11.5643 10.9257C11.5643 12.3171 10.5151 13.4346 9.23785 13.4346C7.93772 13.4346 6.91127 12.3171 6.91127 10.9257C6.91127 9.53428 7.96049 8.41663 9.23785 8.41663ZM17.563 8.41663C18.8631 8.41663 19.8895 9.53428 19.8895 10.9257C19.8895 12.3171 18.8403 13.4346 17.563 13.4346C16.2629 13.4346 15.2365 12.3171 15.2365 10.9257C15.2137 9.53433 16.2629 8.41663 17.563 8.41663Z" fill="white"/>
</svg>
